<svg id="svg" xmlns="http://www.w3.org/2000/svg" xmlns:xlink="http://www.w3.org/1999/xlink" viewBox="0, 0, 400,400"><g id="svgg"><path id="path0" d="M6.875 93.477 L 6.875 140.705 66.406 140.587 L 125.937 140.469 125.935 95.938 C 125.935 71.445,125.843 50.246,125.733 48.828 L 125.532 46.250 66.204 46.250 L 6.875 46.250 6.875 93.477 M210.781 87.215 C 176.063 109.725,142.523 131.471,136.250 135.540 C 129.977 139.609,119.676 146.349,113.359 150.517 L 101.875 158.096 101.875 207.660 C 101.875 234.920,101.980 257.165,102.109 257.092 C 102.238 257.020,128.641 240.813,160.781 221.078 C 192.922 201.342,219.711 184.938,220.313 184.624 C 221.650 183.926,222.604 183.343,222.813 183.096 C 222.898 182.994,224.938 181.714,227.344 180.253 C 229.750 178.791,242.969 170.710,256.719 162.295 C 288.046 143.122,288.017 143.138,295.156 141.515 L 298.281 140.805 345.703 140.706 L 393.125 140.608 393.125 93.429 L 393.125 46.250 333.516 46.269 L 273.906 46.288 210.781 87.215 M6.875 306.911 L 6.875 354.063 102.813 354.063 L 198.750 354.063 198.750 306.887 L 198.750 259.712 102.813 259.736 L 6.875 259.760 6.875 306.911 M201.250 306.953 L 201.250 354.063 297.188 354.063 L 393.125 354.063 393.125 306.915 L 393.125 259.768 297.188 259.806 L 201.250 259.844 201.250 306.953 " stroke="none" fill="currentColor" fill-rule="evenodd"></path></g></svg>