<svg width="1200px" height="700px" viewBox="0 0 1286 685" fill="none" xmlns="http://www.w3.org/2000/svg">
<path d="M549.829 124.602L562.008 103.508L574.186 124.602H549.829Z" stroke="#2C2C2C" stroke-width="2"/>
<path d="M565.892 395.352L578.07 374.258L590.249 395.352H565.892Z" stroke="#2C2C2C" stroke-width="2"/>
<path d="M924.998 354.387L937.961 331.934L950.924 354.387H924.998Z" stroke="#2C2C2C" stroke-width="2"/>
<path d="M528.303 613.473L516.125 634.566L503.947 613.473L528.303 613.473Z" stroke="#2C2C2C" stroke-width="2"/>
<path d="M199.764 439.09L187.586 460.184L175.407 439.09L199.764 439.09Z" stroke="#2C2C2C" stroke-width="2"/>
<path d="M849.108 423.027L836.93 444.121L824.751 423.027L849.108 423.027Z" stroke="#2C2C2C" stroke-width="2"/>
<path d="M798.361 542.637L810.539 521.543L822.718 542.637H798.361Z" stroke="#2C2C2C" stroke-width="2"/>
<rect x="399.672" y="599.34" width="19.7969" height="19.7969" transform="rotate(45 399.672 599.34)" stroke="#2C2C2C" stroke-width="2"/>
<rect x="1158" y="499.531" width="19.7969" height="19.7969" transform="rotate(45 1158 499.531)" stroke="#2C2C2C" stroke-width="2"/>
<rect x="1142.59" y="384.586" width="19.7969" height="19.7969" transform="rotate(45 1142.59 384.586)" stroke="#2C2C2C" stroke-width="2"/>
<rect x="1205.1" y="167.758" width="19.7969" height="19.7969" transform="rotate(45 1205.1 167.758)" stroke="#2C2C2C" stroke-width="2"/>
<path d="M21.9141 462.722L71.7578 540.492H130.585L166.478 485.654L227.296 557.439L201.374 663.123H242.251L287.117 599.314L294.096 635.206L375.851 683.063L402.771 627.23L425.702 663.123L498.484 627.23L486.52 672.096M705.864 672.096L733.78 650.162L674.956 618.257L818.526 382.961L880.341 335.105L971.07 391.935L892.306 382.961L837.47 424.837H828.497L837.47 443.78L812.544 521.547L799.583 540.492L782.634 589.344H851.428L966.085 499.613H1007.96L1029.89 443.78H994.001L1023.91 391.935L1106.66 382.961L1130.59 399.911L1147.54 418.854L1184.43 462.722L1229.3 485.654" stroke="#2C2C2C" stroke-width="2"/>
<path d="M799.359 123.242L846.422 64.4177L929.951 31.4766L902.892 152.653H824.068L799.359 123.242Z" stroke="#2C2C2C" stroke-width="2"/>
<path d="M551.136 124.293L352.927 220.807L199.412 439.744M201.355 446.87L571.217 388.573M584.171 385.334L926.828 349.06L937.192 227.932L1191.11 181.295L1193.05 185.181L947.556 342.583L1130.87 398.289L1144.47 411.244L1150.95 406.062L1226.09 439.744M319.891 455.938L323.134 510.996L430.657 572.532L689.754 476.018L668.379 422.903L319.891 455.938ZM387.258 235.058L370.417 275.218L492.84 361.367L751.29 336.753L780.439 257.728L541.421 170.93L387.258 235.058ZM21.9307 157.977L72.4547 78.3042L119.092 108.099L174.151 45.268L382.724 34.2553L1.20312 1.87109L7.03178 155.385L21.9307 157.977Z" stroke="#2C2C2C" stroke-width="2" stroke-dasharray="3 3"/>
<path d="M54.3359 45.9531L183.664 437.074L195.421 442.561L193.069 451.183L396.86 604.026L402.346 600.891L413.32 613.431L834.225 439.426M414.104 617.35L511.296 626.756L516.782 633.81L522.269 626.756L800.521 538.97L809.143 525.645L935.336 355.558M929.85 353.991L855.388 428.453M940.823 354.775L1150.88 507.617M1171.26 513.104L1249.64 529.564L1284.13 618.918" stroke="#2C2C2C" stroke-width="2" stroke-dasharray="3 3"/>
<path d="M865.578 101.605L729.773 269.322M708.812 295.207L729.773 269.322M734.681 233.284L729.773 269.322M729.773 269.322L766.817 258.366" stroke="#2C2C2C" stroke-width="2"/>
<path d="M244.629 131.205L229.293 165.615L269.92 164.373M203.586 184.687L408.392 45.8008" stroke="#2C2C2C" stroke-width="2"/>
<path d="M400.043 475.295L437.03 482.447L426.628 443.155M461.425 503.171L279.799 335.104" stroke="#2C2C2C" stroke-width="2"/>
<path d="M278.758 334.137L7.74219 173.387M9.73696 231.841L305.991 405.874" stroke="#2C2C2C" stroke-width="2"/>
<path d="M381.18 45.1711L555.188 118.062L561.46 107.09L523.053 25.5742L632.786 34.1969L570.081 111.794L570.865 122.767L928.282 343.801M987.851 38.1159L937.688 334.396" stroke="#2C2C2C" stroke-width="2" stroke-dasharray="3 3"/>
</svg>
