<svg preserveAspectRatio="none" viewBox="0 0 212 211" fill="none" xmlns="http://www.w3.org/2000/svg">
<path d="M0.69758 105.58C0.69758 163.39 46.7576 210.86 105.978 210.86C165.198 210.86 211.258 163.39 211.258 105.58C211.258 47.77 165.198 0.299982 105.978 0.299982C46.7576 0.299982 0.69758 47.77 0.69758 105.58ZM190.108 105.58C190.108 152.58 153.918 190.18 105.978 190.18C58.0376 190.18 21.8476 152.58 21.8476 105.58C21.8476 58.58 58.0376 20.98 105.978 20.98C153.918 20.98 190.108 58.58 190.108 105.58ZM45.8176 105.11C45.8176 142.24 71.1976 166.68 106.918 166.68C136.528 166.68 158.148 149.76 166.138 119.21L145.928 111.69C141.698 134.72 128.538 146 106.918 146C85.7676 146 68.8476 130.02 68.8476 105.11C68.8476 78.79 85.2976 64.22 105.508 64.22C123.838 64.22 137.938 75.97 140.288 93.36L160.498 87.25C154.858 59.05 134.178 44.48 105.508 44.48C89.0576 44.48 74.9576 50.12 63.2076 61.87C51.4576 73.15 45.8176 87.72 45.8176 105.11Z" fill="currentColor"/>
</svg>
