<svg preserveAspectRatio="none" viewBox="0 0 55 54" fill="none" xmlns="http://www.w3.org/2000/svg">
<path d="M54.0313 45.16L52.9113 44.12L50.6713 46.2L44.1913 35.8C41.8979 32.0667 38.8046 29.1333 34.9113 27C37.1513 25.1333 39.3379 23.3467 41.4713 21.64C43.6046 19.9333 45.7913 18.3067 48.0313 16.76L39.7913 7.56C35.8446 11.5067 31.5246 15.1067 26.8313 18.36C26.8313 12.0133 28.3779 5.98666 31.4713 0.279997H30.1113C26.9113 5.66666 25.3113 11.3733 25.3113 17.4V31.88C25.3113 36.8933 23.7646 40.6267 20.6713 43.08C20.5646 43.1867 19.6046 43.72 17.7913 44.68C16.0313 45.64 13.4446 47.0533 10.0312 48.92L9.15125 48.28C11.4979 46.3067 13.3379 44.7067 14.6713 43.48C16.0579 42.2533 16.9646 41.4267 17.3913 41C20.0579 38.0133 21.3913 34.8133 21.3913 31.4V15.4C21.3913 10.9733 22.8046 6.14666 25.6313 0.919998V0.359996C22.8046 1.37333 20.6979 1.88 19.3113 1.88C18.9913 1.88 18.4846 1.82666 17.7913 1.72C17.1513 1.61333 16.2979 1.45333 15.2313 1.24C13.1513 0.759999 11.4713 0.519999 10.1913 0.519999C4.53792 0.519999 1.20458 4.04 0.19125 11.08L0.43125 11.16C2.24458 8.28 4.69792 6.84 7.79125 6.84L13.6313 7.24C15.4446 7.34666 18.4313 6.09333 22.5913 3.48L22.7513 3.8C19.4446 6.30667 17.1246 8.62667 15.7913 10.76C14.1379 13.3733 13.3113 16.52 13.3113 20.2C11.8713 19.5067 10.3246 19.16 8.67125 19.16C5.89792 19.16 3.89792 20.7333 2.67125 23.88C4.48458 23.3467 5.84458 23.08 6.75125 23.08L8.19125 23.24C10.2713 23.4533 11.8179 24.68 12.8313 26.92C13.6313 28.68 14.0313 30.7333 14.0313 33.08C12.4846 32.2267 10.7779 31.8 8.91125 31.8C6.45792 31.8 4.96458 33.1867 4.43125 35.96C5.71125 35.3733 6.75125 35.08 7.55125 35.08C9.20458 35.08 10.2979 35.9867 10.8313 37.8L11.0713 39.96C11.0713 42.4133 10.0313 44.7867 7.95125 47.08C6.72458 48.36 5.63125 49.48 4.67125 50.44C3.76458 51.4 3.01792 52.1733 2.43125 52.76L3.39125 53.96C5.04458 53.4267 6.51125 53 7.79125 52.68C9.07125 52.3067 10.1913 51.9867 11.1513 51.72C13.7646 51.1333 15.9246 50.84 17.6313 50.84C21.3113 50.84 25.7646 51.88 30.9913 53.96L39.4713 44.28C40.1646 45.5067 40.7513 46.5467 41.2313 47.4C41.7646 48.2 42.2179 48.8667 42.5913 49.4C43.1779 50.2533 43.7379 51.0533 44.2713 51.8C44.8579 52.5467 45.4446 53.24 46.0313 53.88L54.0313 45.16ZM39.4713 21.24C37.2846 22.8933 35.3113 24.4667 33.5513 25.96L27.8713 30.76L26.8313 30.68V20.28L34.0313 15L39.4713 21.24ZM38.5913 42.6L35.0713 46.6C31.3913 44.9467 27.2046 44.12 22.5113 44.12L21.4713 43.96C24.5113 41.1867 26.2979 37.56 26.8313 33.08L27.0713 33C29.6846 33 32.0046 34.0133 34.0313 36.04C34.6179 36.6267 35.2846 37.48 36.0313 38.6C36.8313 39.72 37.6846 41.0533 38.5913 42.6Z" fill="currentColor"/>
</svg>
