<svg id="svg" xmlns="http://www.w3.org/2000/svg" xmlns:xlink="http://www.w3.org/1999/xlink" viewBox="0, 0, 400,400"><g id="svgg"><path id="path0" d="M11.875 93.476 L 11.875 140.702 68.906 140.586 L 125.937 140.469 125.935 95.938 C 125.934 71.445,125.843 50.246,125.733 48.828 L 125.532 46.250 68.704 46.250 L 11.875 46.250 11.875 93.476 M210.781 87.215 C 176.063 109.725,142.523 131.471,136.250 135.540 C 129.977 139.609,119.676 146.349,113.359 150.517 L 101.875 158.096 101.875 207.462 C 101.875 248.066,101.802 256.847,101.463 256.930 C 101.236 256.986,80.989 269.406,56.470 284.531 L 11.888 312.031 11.882 331.484 L 11.875 350.938 200.781 350.938 L 389.688 350.938 389.688 303.907 L 389.688 256.876 246.219 256.797 L 102.751 256.719 160.489 221.250 C 192.245 201.742,218.830 185.430,219.568 185.000 C 220.306 184.570,221.724 183.709,222.720 183.086 C 224.557 181.936,276.708 150.044,287.714 143.340 L 293.710 139.688 341.699 139.688 L 389.688 139.688 389.688 92.969 L 389.688 46.250 331.797 46.269 L 273.906 46.288 210.781 87.215 " stroke="none" fill="currentColor" fill-rule="evenodd"></path></g></svg>