<svg preserveAspectRatio="none" viewBox="0 0 1198 484" fill="none" xmlns="http://www.w3.org/2000/svg">
<path fill-rule="evenodd" clip-rule="evenodd" d="M598 408.795V333.81L688.553 333.995L779.106 334.18L779.103 404.886C779.102 443.776 778.957 477.435 778.782 479.687L778.463 483.78L688.232 483.78H598V408.795ZM913.821 418.737C858.696 382.995 805.441 348.467 795.481 342.007C785.521 335.546 769.165 324.844 759.135 318.226L740.901 306.192V227.81C740.901 163.339 740.785 149.397 740.247 149.265C739.886 149.176 707.738 129.456 668.807 105.44L598.021 61.7762L598.011 30.8889L598 0.000120388L897.943 0.000120388L1197.89 0.000120388V74.6754V149.351L970.089 149.476L742.292 149.6L833.968 205.917C884.39 236.892 926.601 262.792 927.773 263.475C928.944 264.157 931.196 265.524 932.777 266.514C935.694 268.34 1018.5 318.977 1035.97 329.622L1045.49 335.42H1121.69H1197.89V409.6V483.78L1105.97 483.75L1014.05 483.72L913.821 418.737Z" fill="currentColor"/>
<path fill-rule="evenodd" clip-rule="evenodd" d="M599.887 408.479L599.887 333.552L509.403 333.736L418.92 333.922L418.923 404.573C418.925 443.433 419.069 477.066 419.244 479.316L419.563 483.406L509.724 483.406L599.887 483.406L599.887 408.479ZM284.31 418.413C339.392 382.699 392.605 348.198 402.558 341.742C412.51 335.286 428.854 324.593 438.876 317.98L457.096 305.956L457.096 227.633C457.096 163.213 457.212 149.281 457.75 149.149C458.11 149.06 490.233 129.355 529.134 105.359L599.866 61.7281L599.876 30.8647L599.887 -0.000276363L300.175 -0.000302564L0.462663 -0.000328766L0.462657 74.6173L0.46265 149.235L228.085 149.36L455.706 149.484L364.101 205.758C313.718 236.708 271.54 262.588 270.369 263.271C269.198 263.953 266.948 265.319 265.368 266.307C262.453 268.132 179.713 318.731 162.251 329.367L152.738 335.161L76.6001 335.161L0.462634 335.161L0.462628 409.284L0.462621 483.406L92.3103 483.376L184.158 483.346L284.31 418.413Z" fill="currentColor"/>
</svg>
