<svg preserveAspectRatio="none" viewBox="0 0 210 211" fill="none" xmlns="http://www.w3.org/2000/svg">
<path d="M104.895 0C46.935 0 0 47.0444 0 105.01C0 162.975 46.935 210.019 104.895 210.019C162.96 210.019 210 162.975 210 105.01C210 47.0444 162.96 0 104.895 0ZM105 189.017C58.59 189.017 21 151.424 21 105.01C21 58.5954 58.59 21.0019 105 21.0019C151.41 21.0019 189 58.5954 189 105.01C189 151.424 151.41 189.017 105 189.017Z" fill="currentColor"/>
<path d="M143.773 98.8772L143.093 93.933L140.171 97.979C136.455 103.124 130.39 106.468 123.477 106.468C112.159 106.468 102.998 97.3677 102.998 86.2038C102.998 79.4181 106.365 73.3768 111.562 69.6946L115.704 66.7601L110.674 66.0807C108.779 65.8247 106.771 65.6504 104.745 65.6504C82.9701 65.6504 65.2812 83.1434 65.2812 104.757C65.2812 126.371 82.9701 143.864 104.745 143.864C126.52 143.864 144.208 126.371 144.208 104.757C144.208 102.747 144.032 100.756 143.773 98.8772ZM77.6065 104.757C77.6065 94.9198 82.9834 86.2714 90.9973 81.5921C90.781 83.1116 90.6732 84.653 90.6732 86.2038C90.6732 104.148 105.407 118.714 123.477 118.714C125.042 118.714 126.598 118.607 128.132 118.392C123.407 126.298 114.686 131.618 104.745 131.618C89.7636 131.618 77.6065 119.549 77.6065 104.757Z" fill="currentColor" stroke-width="4"/>
</svg>
