<svg  preserveAspectRatio="none" viewBox="0 0 24 22" fill="none" xmlns="http://www.w3.org/2000/svg">
<path d="M13.0106 14.1224L13.0444 14.0315L12.9754 13.9633L10.5385 11.5552C12.2323 9.64557 13.4494 7.46102 14.1802 5.15H17H17.15V5V3V2.85H17H10.15V1V0.85H10H8H7.85V1V2.85H1H0.85V3V4.99V5.14H1H11.9576C11.3093 6.92823 10.3207 8.62531 8.99984 10.1246C8.1286 9.13837 7.40314 8.06238 6.82348 6.93158L6.78167 6.85H6.69H4.69H4.45847L4.5531 7.06131C5.27091 8.66409 6.24724 10.1801 7.46308 11.5534L2.47467 16.4732L2.36713 16.5793L2.47393 16.6861L3.89393 18.1061L4 18.2121L4.10607 18.1061L9 13.2121L12.0039 16.2161L12.169 16.3812L12.2506 16.1624L13.0106 14.1224ZM18.6404 8.94733L18.604 8.85H18.5H16.5H16.396L16.3596 8.94733L11.8596 20.9473L11.7836 21.15H12H14H14.1041L14.1405 21.0525L15.2241 18.15H19.7662L20.8596 21.0529L20.8962 21.15H21H23H23.2164L23.1404 20.9473L18.6404 8.94733ZM18.9037 15.85H16.0963L17.5 12.0981L18.9037 15.85Z" fill="currentColor" stroke="currentColor" stroke-width="0.3"/>
</svg>
