<svg xmlns="http://www.w3.org/2000/svg" width="1113.717" height="187.813" viewBox="0 0 1113.717 187.813">
  <defs>
    <style>
      .cls-1 {
        fill-rule: evenodd;
      }
    </style>
  </defs>
  <path id="Kevin_Le." data-name="Kevin Le." class="cls-1" d="M86.9,29.071l14.326-18.753V9.8H10.061v0.521L24.387,29.071a10.525,10.525,0,0,1,2.084,6.772V166.855a10.509,10.509,0,0,1-2.084,6.772L10.061,192.38V192.9h91.162V192.38L86.9,173.627a10.486,10.486,0,0,1-2.084-6.772V35.843A10.5,10.5,0,0,1,86.9,29.071h0Zm47.144,22.4q2.081-2.6,2.213-3.777t-1.693-4.3L116.329,10.318V9.8h87.515v0.521L152.533,43.657a79.1,79.1,0,0,0-14.586,11.981L128.831,65.8l56.52,101.58a123.153,123.153,0,0,0,7.293,10.418l13.544,14.586V192.9h-73.45l-46.1-87.775Zm202.9,67.98q0-16.665-5.339-28.65T317.013,72.568a64.436,64.436,0,0,0-19.4-8.986,83.906,83.906,0,0,0-21.879-2.735q-32.037,0-51.571,16.93t-19.535,50.79q0,32.562,20.056,49.488t48.966,16.93q50.79,0,61.469-49.227l-0.521-.261a36.776,36.776,0,0,1-16.279,14.977,50.141,50.141,0,0,1-22.009,5.079q-15.889,0-26.046-9.637t-10.939-30.995h77.357a50.905,50.905,0,0,0,.26-5.47h0ZM281.72,68.531q2.863,2.478,5.079,12.242t2.214,27.218q0,7.814-.26,11.981H259.321q0-31.512,3.646-42.715t11.721-11.2A10.4,10.4,0,0,1,281.72,68.531Zm166.954,46.232a105.25,105.25,0,0,1,6.511-14.065L474.72,63.452V62.931H427.577v0.521l15.627,39.33a20.424,20.424,0,0,1,1.433,5.079,18.614,18.614,0,0,1-1.172,5.86l-16.149,49.227L404.135,86.373a10.769,10.769,0,0,1,.521-6.511l6.772-16.409V62.931H339.28v0.521l8.075,18.753q2.862,6.776,6.251,17.19L383.819,192.9h39.33Zm80.61-69.152q6.9-5.86,6.9-15.758,0-10.414-6.9-16.539T511.963,7.193a25.281,25.281,0,0,0-17.19,6.121q-7.032,6.123-7.033,16.539,0,9.9,7.033,15.758a25.956,25.956,0,0,0,17.19,5.86Q522.377,51.471,529.284,45.611ZM473.676,62.931v0.521l9.9,13.023a10.1,10.1,0,0,1,2.084,6.511v90.119a10.1,10.1,0,0,1-2.084,6.512l-9.9,12.762V192.9h76.835V192.38l-10.158-12.762a10.078,10.078,0,0,1-2.083-6.512V62.931H473.676Zm234.8,84.91q0.392-20.053.391-30.474,0-27.085-11.07-41.8T665.632,60.848q-31.255,0-42.976,28.39V62.931H558.062v0.521l9.9,13.023a10.108,10.108,0,0,1,2.083,6.511v90.119a10.1,10.1,0,0,1-2.083,6.512l-9.9,12.762V192.9H634.9V192.38L624.74,179.618a10.073,10.073,0,0,1-2.084-6.512V93.145q6.509-7.289,14.847-7.293,7.813,0,12.111,5.47a25.985,25.985,0,0,1,5.339,12.372A126.57,126.57,0,0,1,656,121.8q0,7.815-.39,28.781t-0.391,22.53a10.1,10.1,0,0,1-2.084,6.512l-9.9,12.762V192.9h77.1V192.38l-10.158-12.762a10.073,10.073,0,0,1-2.084-6.512Q708.087,167.9,708.478,147.841Zm81.131,25.786L775.283,192.38V192.9h144.3V119.972h-0.521L876.6,183.524a8.063,8.063,0,0,1-7.033,3.907H854.463c-2.083,0-3.345-.215-3.776-0.651s-0.651-1.778-.651-4.037V35.843a10.5,10.5,0,0,1,2.083-6.772l14.326-18.753V9.8H775.283v0.521l14.326,18.753a10.523,10.523,0,0,1,2.083,6.772V166.855a10.508,10.508,0,0,1-2.083,6.772h0Zm273.741-54.176q0-16.665-5.34-28.65t-14.58-18.232a64.523,64.523,0,0,0-19.41-8.986,83.87,83.87,0,0,0-21.88-2.735q-32.033,0-51.568,16.93t-19.535,50.79q0,32.562,20.056,49.488t48.967,16.93q50.79,0,61.47-49.227l-0.52-.261a36.783,36.783,0,0,1-16.28,14.977,50.135,50.135,0,0,1-22.01,5.079q-15.885,0-26.047-9.637t-10.939-30.995h77.356a51.166,51.166,0,0,0,.26-5.47h0Zm-55.22-50.92q2.865,2.478,5.08,12.242t2.22,27.218q0,7.814-.26,11.981H985.734q0-31.512,3.646-42.715t11.72-11.2A10.381,10.381,0,0,1,1008.13,68.531Zm75.67,120.333a25.57,25.57,0,0,0,33.2,0,20.258,20.258,0,0,0,6.78-15.758q0-10.158-6.78-16.409a25.166,25.166,0,0,0-33.2,0q-6.915,6.25-6.91,16.409A20.073,20.073,0,0,0,1083.8,188.864Z" transform="translate(-10.063 -7.188)"/>
</svg>
