<svg width="283" height="283" viewBox="0 0 283 283" fill="none" xmlns="http://www.w3.org/2000/svg">
<path d="M282.664 235.84L276.784 230.38L265.024 241.3L231.004 186.7C218.964 167.1 202.724 151.7 182.284 140.5C194.044 130.7 205.524 121.32 216.724 112.36C227.924 103.4 239.404 94.86 251.164 86.74L207.904 38.44C187.184 59.16 164.504 78.06 139.864 95.14C139.864 61.82 147.984 30.18 164.224 0.219984H157.084C140.284 28.5 131.884 58.46 131.884 90.1V166.12C131.884 192.44 123.764 212.04 107.524 224.92C106.964 225.48 101.924 228.28 92.4041 233.32C83.1641 238.36 69.5841 245.78 51.6641 255.58L47.0441 252.22C59.3641 241.86 69.0241 233.46 76.0241 227.02C83.3041 220.58 88.0641 216.24 90.3041 214C104.304 198.32 111.304 181.52 111.304 163.6V79.6C111.304 56.36 118.724 31.02 133.564 3.57999V0.639978C118.724 5.95998 107.664 8.61998 100.384 8.61998C98.7041 8.61998 96.0441 8.33998 92.4041 7.77999C89.0441 7.21999 84.5641 6.38 78.9641 5.25999C68.0441 2.73999 59.2241 1.47999 52.5041 1.47999C22.8241 1.47999 5.32406 19.96 0.00406254 56.92L1.26406 57.34C10.7841 42.22 23.6641 34.66 39.9041 34.66L70.5641 36.76C80.0841 37.32 95.7641 30.74 117.604 17.02L118.444 18.7C101.084 31.86 88.9041 44.04 81.9041 55.24C73.2241 68.96 68.8841 85.48 68.8841 104.8C61.3241 101.16 53.2041 99.34 44.5241 99.34C29.9641 99.34 19.4641 107.6 13.0241 124.12C22.5441 121.32 29.6841 119.92 34.4441 119.92L42.0041 120.76C52.9241 121.88 61.0441 128.32 66.3641 140.08C70.5641 149.32 72.6641 160.1 72.6641 172.42C64.5441 167.94 55.5841 165.7 45.7841 165.7C32.9041 165.7 25.0641 172.98 22.2641 187.54C28.9841 184.46 34.4441 182.92 38.6441 182.92C47.3241 182.92 53.0641 187.68 55.8641 197.2L57.1241 208.54C57.1241 221.42 51.6641 233.88 40.7441 245.92C34.3041 252.64 28.5641 258.52 23.5241 263.56C18.7641 268.6 14.8441 272.66 11.7641 275.74L16.8041 282.04C25.4841 279.24 33.1841 277 39.9041 275.32C46.6241 273.36 52.5041 271.68 57.5441 270.28C71.2641 267.2 82.6041 265.66 91.5641 265.66C110.884 265.66 134.264 271.12 161.704 282.04L206.224 231.22C209.864 237.66 212.944 243.12 215.464 247.6C218.264 251.8 220.644 255.3 222.604 258.1C225.684 262.58 228.624 266.78 231.424 270.7C234.504 274.62 237.584 278.26 240.664 281.62L282.664 235.84ZM206.224 110.26C194.744 118.94 184.384 127.2 175.144 135.04L145.324 160.24L139.864 159.82V105.22L177.664 77.5L206.224 110.26ZM201.604 222.4L183.124 243.4C163.804 234.72 141.824 230.38 117.184 230.38L111.724 229.54C127.684 214.98 137.064 195.94 139.864 172.42L141.124 172C154.844 172 167.024 177.32 177.664 187.96C180.744 191.04 184.244 195.52 188.164 201.4C192.364 207.28 196.844 214.28 201.604 222.4Z" fill="black"/>
<path d="M282.664 235.84L294.454 246.656L305.206 234.937L293.551 224.115L282.664 235.84ZM276.784 230.38L287.671 218.655L276.784 208.546L265.897 218.655L276.784 230.38ZM265.024 241.3L251.444 249.761L261.7 266.221L275.911 253.025L265.024 241.3ZM231.004 186.7L217.371 195.075L217.397 195.118L217.424 195.161L231.004 186.7ZM182.284 140.5L172.041 128.208L153.997 143.245L174.596 154.532L182.284 140.5ZM216.724 112.36L206.729 99.8661L206.729 99.8661L216.724 112.36ZM251.164 86.74L260.255 99.9063L275.196 89.59L263.083 76.0652L251.164 86.74ZM207.904 38.44L219.823 27.7652L208.544 15.1727L196.59 27.1263L207.904 38.44ZM139.864 95.14H123.864V125.699L148.979 108.29L139.864 95.14ZM164.224 0.219984L178.29 7.84475L191.096 -15.78H164.224V0.219984ZM157.084 0.219984V-15.78H147.979L143.328 -7.95178L157.084 0.219984ZM107.524 224.92L97.5818 212.384L96.8609 212.956L96.2104 213.606L107.524 224.92ZM92.4041 233.32L84.9179 219.179L84.8299 219.226L84.7424 219.274L92.4041 233.32ZM51.6641 255.58L42.2533 268.52L50.4494 274.481L59.3411 269.618L51.6641 255.58ZM47.0441 252.22L36.7465 239.974L21.0974 253.134L37.6333 265.16L47.0441 252.22ZM76.0241 227.02L65.4229 215.036L65.306 215.139L65.1912 215.245L76.0241 227.02ZM90.3041 214L101.618 225.314L101.938 224.994L102.239 224.656L90.3041 214ZM133.564 3.57999L147.638 11.1913L149.564 7.62939V3.57999H133.564ZM133.564 0.639978H149.564V-22.0929L128.165 -14.4215L133.564 0.639978ZM92.4041 7.77999L89.7737 23.5623L89.8724 23.5787L89.9712 23.5939L92.4041 7.77999ZM78.9641 5.25999L75.3663 20.8503L75.5955 20.9031L75.8262 20.9493L78.9641 5.25999ZM0.00406254 56.92L-15.8327 54.6404L-17.7372 67.8715L-5.05579 72.0988L0.00406254 56.92ZM1.26406 57.34L-3.79579 72.5189L8.11452 76.4892L14.8038 65.865L1.26406 57.34ZM39.9041 34.66L40.9974 18.6974L40.4514 18.66H39.9041V34.66ZM70.5641 36.76L69.4707 52.7226L69.5476 52.7279L69.6245 52.7324L70.5641 36.76ZM117.604 17.02L131.915 9.86458L124.027 -5.91038L109.093 3.47157L117.604 17.02ZM118.444 18.7L128.11 31.4505L138.696 23.4258L132.755 11.5446L118.444 18.7ZM81.9041 55.24L95.4253 63.7943L95.4488 63.7572L95.472 63.72L81.9041 55.24ZM68.8841 104.8L61.943 119.216L84.8841 130.262V104.8H68.8841ZM13.0241 124.12L-1.88326 118.309L-13.7161 148.662L17.5387 139.47L13.0241 124.12ZM34.4441 119.92L36.211 104.018L35.3302 103.92H34.4441V119.92ZM42.0041 120.76L40.2372 136.662L40.3044 136.67L40.3716 136.677L42.0041 120.76ZM66.3641 140.08L51.7863 146.675L51.7923 146.688L51.7982 146.701L66.3641 140.08ZM72.6641 172.42L64.9348 186.429L88.6641 199.521V172.42H72.6641ZM22.2641 187.54L6.55196 184.518L0.6841 215.031L28.9305 202.085L22.2641 187.54ZM55.8641 197.2L71.7662 195.433L71.6109 194.035L71.2139 192.685L55.8641 197.2ZM57.1241 208.54H73.1241V207.654L73.0262 206.773L57.1241 208.54ZM40.7441 245.92L52.2959 256.99L52.4479 256.832L52.5956 256.669L40.7441 245.92ZM23.5241 263.56L12.2104 252.246L12.0488 252.408L11.8919 252.574L23.5241 263.56ZM11.7641 275.74L0.450354 264.426L-9.6759 274.553L-0.729837 285.735L11.7641 275.74ZM16.8041 282.04L4.31016 292.035L11.2078 300.657L21.7161 297.267L16.8041 282.04ZM39.9041 275.32L43.7846 290.842L44.0859 290.767L44.3841 290.68L39.9041 275.32ZM57.5441 270.28L54.0395 254.669L53.6482 254.756L53.2618 254.864L57.5441 270.28ZM161.704 282.04L155.788 296.906L166.291 301.086L173.739 292.583L161.704 282.04ZM206.224 231.22L220.153 223.347L209.053 203.709L194.189 220.677L206.224 231.22ZM215.464 247.6L201.519 255.444L201.816 255.972L202.151 256.475L215.464 247.6ZM222.604 258.1L235.789 249.036L235.75 248.98L235.712 248.925L222.604 258.1ZM231.424 270.7L218.404 280L218.617 280.297L218.843 280.585L231.424 270.7ZM240.664 281.62L228.87 292.432L240.659 305.293L252.454 292.436L240.664 281.62ZM206.224 110.26L215.874 123.023L229.557 112.676L218.284 99.7458L206.224 110.26ZM175.144 135.04L185.471 147.261L185.484 147.25L185.496 147.24L175.144 135.04ZM145.324 160.24L144.097 176.193L150.639 176.696L155.651 172.461L145.324 160.24ZM139.864 159.82H123.864V174.637L138.637 175.773L139.864 159.82ZM139.864 105.22L130.402 92.3175L123.864 97.1122V105.22H139.864ZM177.664 77.5L189.724 66.9858L180.061 55.9012L168.202 64.5975L177.664 77.5ZM201.604 222.4L213.615 232.97L221.257 224.287L215.407 214.308L201.604 222.4ZM183.124 243.4L176.567 257.995L187.336 262.833L195.135 253.97L183.124 243.4ZM117.184 230.38L114.751 246.194L115.961 246.38H117.184V230.38ZM111.724 229.54L100.941 217.72L76.2255 240.267L109.291 245.354L111.724 229.54ZM139.864 172.42L134.805 157.241L125.176 160.45L123.976 170.529L139.864 172.42ZM141.124 172V156H138.528L136.065 156.821L141.124 172ZM188.164 201.4L174.851 210.275L174.994 210.49L175.144 210.7L188.164 201.4ZM293.551 224.115L287.671 218.655L265.897 242.105L271.777 247.565L293.551 224.115ZM265.897 218.655L254.137 229.575L275.911 253.025L287.671 242.105L265.897 218.655ZM278.604 232.839L244.584 178.239L217.424 195.161L251.444 249.761L278.604 232.839ZM244.637 178.325C231.121 156.322 212.818 138.987 189.973 126.468L174.596 154.532C192.63 164.413 206.807 177.878 217.371 195.075L244.637 178.325ZM192.527 152.792C204.211 143.055 215.608 133.743 226.719 124.854L206.729 99.8661C195.44 108.897 183.878 118.345 172.041 128.208L192.527 152.792ZM226.719 124.854C237.627 116.128 248.805 107.812 260.255 99.9063L242.073 73.5736C230.003 81.9079 218.221 90.6722 206.729 99.8661L226.719 124.854ZM263.083 76.0652L219.823 27.7652L195.986 49.1148L239.246 97.4148L263.083 76.0652ZM196.59 27.1263C176.562 47.1543 154.621 65.4427 130.749 81.9903L148.979 108.29C174.387 90.6773 197.806 71.1657 219.218 49.7537L196.59 27.1263ZM155.864 95.14C155.864 64.5453 163.289 35.5192 178.29 7.84475L150.158 -7.40478C132.679 24.8408 123.864 59.0946 123.864 95.14H155.864ZM164.224 -15.78H157.084V16.22H164.224V-15.78ZM143.328 -7.95178C125.12 22.6985 115.884 55.467 115.884 90.1H147.884C147.884 61.453 155.448 34.3015 170.84 8.39175L143.328 -7.95178ZM115.884 90.1V166.12H147.884V90.1H115.884ZM115.884 166.12C115.884 188.995 108.994 203.333 97.5818 212.384L117.466 237.456C138.534 220.747 147.884 195.885 147.884 166.12H115.884ZM96.2104 213.606C96.9675 212.849 97.6149 212.365 97.7666 212.251C98.0114 212.068 98.1849 211.952 98.2289 211.922C98.3179 211.863 98.2793 211.892 98.0321 212.04C97.5572 212.325 96.7564 212.785 95.5538 213.453C93.1763 214.774 89.649 216.675 84.9179 219.179L99.8903 247.461C104.679 244.925 108.432 242.906 111.094 241.427C112.412 240.695 113.571 240.035 114.496 239.48C114.949 239.208 115.47 238.887 115.979 238.548C116.128 238.449 117.511 237.561 118.838 236.234L96.2104 213.606ZM84.7424 219.274C75.4946 224.318 61.9084 231.741 43.9871 241.542L59.3411 269.618C77.2597 259.819 90.8336 252.402 100.066 247.366L84.7424 219.274ZM61.0748 242.64L56.4548 239.28L37.6333 265.16L42.2533 268.52L61.0748 242.64ZM57.3417 264.466C69.738 254.042 79.6036 245.468 86.857 238.795L65.1912 215.245C58.4445 221.452 48.9902 229.678 36.7465 239.974L57.3417 264.466ZM86.6253 239.004C93.8378 232.624 98.9722 227.959 101.618 225.314L78.9904 202.686C77.156 204.521 72.7703 208.536 65.4229 215.036L86.6253 239.004ZM102.239 224.656C118.377 206.582 127.304 186.116 127.304 163.6H95.3041C95.3041 176.924 90.2311 190.058 78.3691 203.344L102.239 224.656ZM127.304 163.6V79.6H95.3041V163.6H127.304ZM127.304 79.6C127.304 59.7717 133.647 37.0613 147.638 11.1913L119.49 -4.03129C103.801 24.9787 95.3041 52.9483 95.3041 79.6H127.304ZM149.564 3.57999V0.639978H117.564V3.57999H149.564ZM128.165 -14.4215C113.516 -9.16997 104.695 -7.38002 100.384 -7.38002V24.62C110.633 24.62 123.932 21.0899 138.963 15.7014L128.165 -14.4215ZM100.384 -7.38002C100.39 -7.38002 100.264 -7.38041 99.9704 -7.39933C99.6853 -7.41772 99.301 -7.4498 98.804 -7.50211C97.8014 -7.60764 96.4914 -7.77945 94.837 -8.03397L89.9712 23.5939C93.6998 24.1676 97.3928 24.62 100.384 24.62V-7.38002ZM95.0344 -8.00232C91.919 -8.52155 87.6293 -9.32381 82.1019 -10.4293L75.8262 20.9493C81.4988 22.0838 86.1691 22.9615 89.7737 23.5623L95.0344 -8.00232ZM82.5618 -10.3303C71.1327 -12.9678 60.9702 -14.52 52.5041 -14.52V17.48C57.4779 17.48 64.9555 18.4478 75.3663 20.8503L82.5618 -10.3303ZM52.5041 -14.52C34.0648 -14.52 17.7798 -8.62732 5.50151 4.33851C-6.35928 16.8635 -12.9111 34.3432 -15.8327 54.6404L15.8408 59.1995C18.2393 42.5368 23.0974 32.2965 28.7366 26.3415C33.9584 20.8273 41.2633 17.48 52.5041 17.48V-14.52ZM-5.05579 72.0988L-3.79579 72.5189L6.32392 42.1611L5.06392 41.7411L-5.05579 72.0988ZM14.8038 65.865C21.7446 54.8414 29.7882 50.66 39.9041 50.66V18.66C17.5399 18.66 -0.176456 29.5986 -12.2757 48.815L14.8038 65.865ZM38.8107 50.6226L69.4707 52.7226L71.6574 20.7974L40.9974 18.6974L38.8107 50.6226ZM69.6245 52.7324C78.0477 53.2279 87.0635 50.6041 95.6553 46.9986C104.598 43.2457 114.792 37.6815 126.115 30.5684L109.093 3.47157C98.5757 10.0785 90.0099 14.6642 83.2728 17.4914C76.1847 20.4659 72.6004 20.8521 71.5036 20.7876L69.6245 52.7324ZM103.293 24.1754L104.133 25.8554L132.755 11.5446L131.915 9.86458L103.293 24.1754ZM108.778 5.94952C90.7422 19.6221 76.8206 33.1848 68.3361 46.76L95.472 63.72C100.988 54.8952 111.426 44.0979 128.11 31.4505L108.778 5.94952ZM68.3828 46.6857C57.7981 63.4164 52.8841 83.0339 52.8841 104.8H84.8841C84.8841 87.9261 88.65 74.5036 95.4253 63.7943L68.3828 46.6857ZM75.8251 90.384C66.0241 85.665 55.522 83.34 44.5241 83.34V115.34C50.8861 115.34 56.624 116.655 61.943 119.216L75.8251 90.384ZM44.5241 83.34C33.999 83.34 24.1651 86.4079 15.8365 92.9597C7.72183 99.3433 2.04505 108.232 -1.88326 118.309L27.9314 129.931C30.4431 123.488 33.2363 119.987 35.6216 118.11C37.793 116.402 40.4891 115.34 44.5241 115.34V83.34ZM17.5387 139.47C26.8221 136.739 32.1108 135.92 34.4441 135.92V103.92C27.2573 103.92 18.266 105.901 8.50941 108.77L17.5387 139.47ZM32.6772 135.822L40.2372 136.662L43.771 104.858L36.211 104.018L32.6772 135.822ZM40.3716 136.677C44.5342 137.103 48.3244 139.022 51.7863 146.675L80.9418 133.485C73.7637 117.618 61.3139 106.657 43.6365 104.843L40.3716 136.677ZM51.7982 146.701C54.8733 153.466 56.6641 161.905 56.6641 172.42H88.6641C88.6641 158.295 86.2549 145.174 80.9299 133.459L51.7982 146.701ZM80.3933 158.411C69.7713 152.55 58.1286 149.7 45.7841 149.7V181.7C53.0395 181.7 59.3168 183.33 64.9348 186.429L80.3933 158.411ZM45.7841 149.7C36.176 149.7 26.8178 152.507 19.3568 159.435C12.1455 166.132 8.35221 175.157 6.55196 184.518L37.9762 190.562C38.9759 185.363 40.5027 183.468 41.1313 182.885C41.5103 182.533 42.5121 181.7 45.7841 181.7V149.7ZM28.9305 202.085C34.9135 199.343 37.8748 198.92 38.6441 198.92V166.92C31.0134 166.92 23.0546 169.577 15.5976 172.995L28.9305 202.085ZM38.6441 198.92C39.3499 198.92 39.6162 199.016 39.5874 199.006C39.5281 198.987 39.3769 198.915 39.2457 198.806C38.9755 198.582 39.7207 199.017 40.5142 201.715L71.2139 192.685C69.2074 185.863 65.6826 179.158 59.6724 174.174C53.4724 169.032 46.0706 166.92 38.6441 166.92V198.92ZM39.9619 198.967L41.2219 210.307L73.0262 206.773L71.7662 195.433L39.9619 198.967ZM41.1241 208.54C41.1241 216.484 37.8686 225.274 28.8926 235.171L52.5956 256.669C65.4595 242.486 73.1241 226.356 73.1241 208.54H41.1241ZM29.1923 234.85C22.8085 241.511 17.1503 247.306 12.2104 252.246L34.8378 274.874C39.9779 269.734 45.7996 263.769 52.2959 256.99L29.1923 234.85ZM11.8919 252.574C7.18324 257.56 3.37906 261.498 0.450354 264.426L23.0778 287.054C26.3091 283.822 30.3449 279.64 35.1563 274.546L11.8919 252.574ZM-0.729837 285.735L4.31016 292.035L29.298 272.045L24.258 265.745L-0.729837 285.735ZM21.7161 297.267C30.1552 294.545 37.5001 292.413 43.7846 290.842L36.0235 259.798C28.868 261.587 20.8129 263.935 11.892 266.813L21.7161 297.267ZM44.3841 290.68C51.0587 288.733 56.8701 287.073 61.8264 285.696L53.2618 254.864C48.138 256.287 42.1894 257.987 35.4241 259.96L44.3841 290.68ZM61.0487 285.891C74.1897 282.941 84.2518 281.66 91.5641 281.66V249.66C80.9564 249.66 68.3384 251.459 54.0395 254.669L61.0487 285.891ZM91.5641 281.66C108.079 281.66 129.338 286.38 155.788 296.906L167.62 267.174C139.19 255.86 113.689 249.66 91.5641 249.66V281.66ZM173.739 292.583L218.259 241.763L194.189 220.677L149.669 271.497L173.739 292.583ZM192.295 239.093C195.932 245.527 199.006 250.977 201.519 255.444L229.409 239.756C226.882 235.263 223.796 229.793 220.153 223.347L192.295 239.093ZM202.151 256.475C204.99 260.733 207.443 264.342 209.496 267.275L235.712 248.925C233.845 246.258 231.538 242.867 228.777 238.725L202.151 256.475ZM209.419 267.164C212.547 271.714 215.542 275.993 218.404 280L244.444 261.4C241.706 257.567 238.821 253.446 235.789 249.036L209.419 267.164ZM218.843 280.585C222.15 284.795 225.492 288.747 228.87 292.432L252.459 270.808C249.676 267.773 246.858 264.445 244.005 260.815L218.843 280.585ZM252.454 292.436L294.454 246.656L270.874 225.024L228.874 270.804L252.454 292.436ZM196.574 97.4974C184.898 106.326 174.299 114.774 164.792 122.84L185.496 147.24C194.469 139.626 204.59 131.554 215.874 123.023L196.574 97.4974ZM164.817 122.819L134.997 148.019L155.651 172.461L185.471 147.261L164.817 122.819ZM146.551 144.287L141.091 143.867L138.637 175.773L144.097 176.193L146.551 144.287ZM155.864 159.82V105.22H123.864V159.82H155.864ZM149.326 118.122L187.126 90.4025L168.202 64.5975L130.402 92.3175L149.326 118.122ZM165.604 88.0142L194.164 120.774L218.284 99.7458L189.724 66.9858L165.604 88.0142ZM189.593 211.83L171.113 232.83L195.135 253.97L213.615 232.97L189.593 211.83ZM189.681 228.805C167.989 219.06 143.718 214.38 117.184 214.38V246.38C139.93 246.38 159.619 250.38 176.567 257.995L189.681 228.805ZM119.617 214.566L114.157 213.726L109.291 245.354L114.751 246.194L119.617 214.566ZM122.507 241.36C141.587 223.954 152.545 201.251 155.752 174.311L123.976 170.529C121.583 190.629 113.781 206.006 100.941 217.72L122.507 241.36ZM144.924 187.599L146.184 187.179L136.065 156.821L134.805 157.241L144.924 187.599ZM141.124 188C150.17 188 158.392 191.315 166.35 199.274L188.978 176.646C175.656 163.325 159.519 156 141.124 156V188ZM166.35 199.274C168.371 201.295 171.203 204.803 174.851 210.275L201.477 192.525C197.285 186.237 193.117 180.785 188.978 176.646L166.35 199.274ZM175.144 210.7C178.997 216.093 183.216 222.67 187.801 230.492L215.407 214.308C210.472 205.89 205.732 198.467 201.184 192.1L175.144 210.7Z" fill="white"/>
</svg>
