<svg preserveAspectRatio="none" viewBox="0 0 28 28" fill="none" xmlns="http://www.w3.org/2000/svg">
<g clip-path="url(#clip0_310_415)">
<path fill-rule="evenodd" clip-rule="evenodd" d="M13.5655 0.583008C10.3607 0.584732 7.26088 1.76188 4.82046 3.90395C2.38004 6.04603 0.758122 9.01335 0.244719 12.2753C-0.268685 15.5373 0.359899 18.8813 2.01809 21.7092C3.67627 24.5372 6.25593 26.6647 9.29578 27.7115C9.96642 27.8406 10.219 27.4095 10.219 27.043C10.219 26.6765 10.2056 25.6139 10.2011 24.4521C6.44555 25.2934 5.65196 22.8086 5.65196 22.8086C5.03945 21.195 4.1542 20.7709 4.1542 20.7709C2.92916 19.9088 4.24586 19.9249 4.24586 19.9249C5.60279 20.024 6.31591 21.361 6.31591 21.361C7.51859 23.4886 9.47461 22.8731 10.2436 22.5135C10.3643 21.6122 10.7153 20.9991 11.102 20.651C8.10204 20.3006 4.95002 19.1066 4.95002 13.7727C4.93143 12.3893 5.42926 11.0516 6.34049 10.0361C6.20189 9.68576 5.73914 8.27045 6.47238 6.34801C6.47238 6.34801 7.60577 5.97459 10.1855 7.77485C12.3982 7.1509 14.7328 7.1509 16.9456 7.77485C19.5231 5.97459 20.6542 6.34801 20.6542 6.34801C21.3897 8.26584 20.9269 9.68115 20.7883 10.0361C21.7024 11.0517 22.2013 12.3918 22.181 13.7773C22.181 19.1228 19.0223 20.3007 16.0178 20.6441C16.5007 21.0775 16.9321 21.9234 16.9321 23.2235C16.9321 25.086 16.9165 26.5843 16.9165 27.043C16.9165 27.4141 17.1602 27.8475 17.8442 27.7115C20.8844 26.6646 23.4643 24.5367 25.1225 21.7082C26.7806 18.8798 27.4089 15.5354 26.8949 12.2731C26.3809 9.01078 24.7582 6.04342 22.317 3.90171C19.8757 1.76001 16.7752 0.583639 13.57 0.583008H13.5655Z" fill="currentColor"/>
<path d="M5.17647 20.5707C5.14741 20.6399 5.04011 20.6606 4.95292 20.6122C4.86574 20.5638 4.80092 20.4739 4.83221 20.4025C4.86351 20.331 4.96858 20.3126 5.05576 20.361C5.14294 20.4094 5.21 20.5016 5.17647 20.5707Z" fill="currentColor"/>
<path d="M5.72507 21.2C5.67878 21.224 5.62581 21.2308 5.57525 21.219C5.52468 21.2072 5.47966 21.1777 5.44788 21.1354C5.36069 21.0386 5.3428 20.9049 5.40987 20.845C5.47693 20.7851 5.59765 20.8127 5.68484 20.9096C5.77202 21.0064 5.79214 21.1401 5.72507 21.2Z" fill="currentColor"/>
<path d="M6.25693 21.9997C6.17421 22.0597 6.03337 21.9997 5.95513 21.8799C5.9335 21.8584 5.91629 21.8326 5.90454 21.8041C5.89278 21.7756 5.88672 21.7449 5.88672 21.7139C5.88672 21.6829 5.89278 21.6523 5.90454 21.6238C5.91629 21.5952 5.9335 21.5695 5.95513 21.548C6.03784 21.4903 6.17869 21.548 6.25693 21.6655C6.33517 21.7831 6.3374 21.9398 6.25693 21.9997V21.9997Z" fill="currentColor"/>
<path d="M6.97853 22.7741C6.90476 22.8594 6.75498 22.8364 6.63203 22.7211C6.50908 22.6059 6.48001 22.4491 6.55378 22.3661C6.62755 22.2831 6.77733 22.3062 6.90475 22.4191C7.03217 22.5321 7.05677 22.6911 6.97853 22.7741V22.7741Z" fill="currentColor"/>
<path d="M7.99189 23.2265C7.95836 23.3348 7.80634 23.3832 7.65433 23.3371C7.50232 23.291 7.40172 23.1619 7.43078 23.0513C7.45984 22.9406 7.61409 22.8899 7.76834 22.9406C7.92259 22.9913 8.02095 23.1135 7.99189 23.2265Z" fill="currentColor"/>
<path d="M9.09656 23.3045C9.09656 23.4174 8.97138 23.5142 8.81042 23.5165C8.64947 23.5188 8.51758 23.4266 8.51758 23.3137C8.51758 23.2007 8.64276 23.1039 8.80371 23.1016C8.96467 23.0993 9.09656 23.1892 9.09656 23.3045Z" fill="currentColor"/>
<path d="M10.1237 23.1269C10.1438 23.2399 10.032 23.3574 9.87105 23.3851C9.7101 23.4127 9.56926 23.3459 9.54914 23.2352C9.52902 23.1246 9.64527 23.0047 9.80175 22.9748C9.95823 22.9448 10.1035 23.014 10.1237 23.1269Z" fill="currentColor"/>
</g>
<defs>
<clipPath id="clip0_310_415">
<rect width="27" height="28" fill="white" transform="translate(0.0644531)"/>
</clipPath>
</defs>
</svg>
