<svg preserveAspectRatio="none" viewBox="0 0 28 28" fill="none" xmlns="http://www.w3.org/2000/svg">
<g clip-path="url(#clip0_310_414)">
<path d="M25.0658 0H2.05781C0.955664 0 0.0644531 0.902344 0.0644531 2.01797V25.9766C0.0644531 27.0922 0.955664 28 2.05781 28H25.0658C26.168 28 27.0645 27.0922 27.0645 25.982V2.01797C27.0645 0.902344 26.168 0 25.0658 0ZM8.0748 23.8602H4.06699V10.4945H8.0748V23.8602ZM6.0709 8.67344C4.78418 8.67344 3.74531 7.59609 3.74531 6.26719C3.74531 4.93828 4.78418 3.86094 6.0709 3.86094C7.35234 3.86094 8.39121 4.93828 8.39121 6.26719C8.39121 7.59062 7.35234 8.67344 6.0709 8.67344ZM23.0725 23.8602H19.0699V17.3633C19.0699 15.8156 19.0436 13.8195 16.9869 13.8195C14.9039 13.8195 14.5875 15.5094 14.5875 17.2539V23.8602H10.5902V10.4945H14.4293V12.3211H14.482C15.0146 11.2711 16.3225 10.1609 18.2684 10.1609C22.3236 10.1609 23.0725 12.9281 23.0725 16.5266V23.8602V23.8602Z" fill="currentColor"/>
</g>
<defs>
<clipPath id="clip0_310_414">
<rect width="27" height="28" fill="white" transform="translate(0.0644531)"/>
</clipPath>
</defs>
</svg>
