<svg preserveAspectRatio="none" viewBox="0 0 29 28" fill="none" xmlns="http://www.w3.org/2000/svg">
<g clip-path="url(#clip0_310_413)">
<path d="M8.87297 25.3749C19.4364 25.3749 25.2158 16.621 25.2158 9.03205C25.2158 8.78595 25.2103 8.53439 25.1994 8.2883C26.3236 7.47525 27.2939 6.46817 28.0645 5.31439C27.0174 5.78024 25.9057 6.08449 24.7673 6.21674C25.9659 5.49827 26.8634 4.3696 27.2934 3.03994C26.1658 3.70819 24.9326 4.17959 23.6468 4.43392C22.7804 3.51337 21.6349 2.90385 20.3874 2.6996C19.1399 2.49536 17.8598 2.70777 16.7452 3.30399C15.6305 3.90021 14.7432 4.84703 14.2206 5.99807C13.698 7.14912 13.5691 8.44026 13.8539 9.67189C11.5707 9.55732 9.33705 8.9642 7.29776 7.93099C5.25848 6.89779 3.45909 5.44755 2.01625 3.67431C1.28292 4.93866 1.05852 6.4348 1.38866 7.85865C1.71879 9.2825 2.57869 10.5272 3.79359 11.3399C2.88152 11.3109 1.98942 11.0653 1.19102 10.6235V10.6945C1.1902 12.0214 1.6489 13.3076 2.48915 14.3344C3.32939 15.3613 4.49933 16.0655 5.80008 16.3274C4.95518 16.5585 4.06843 16.5922 3.20844 16.4258C3.57548 17.5669 4.28962 18.5649 5.25119 19.2806C6.21275 19.9963 7.37376 20.3939 8.57219 20.418C6.53761 22.0162 4.02432 22.883 1.43711 22.8789C0.978288 22.8782 0.519919 22.8501 0.0644531 22.7947C2.69279 24.4809 5.75024 25.3765 8.87297 25.3749Z" fill="currentColor"/>
</g>
<defs>
<clipPath id="clip0_310_413">
<rect width="28" height="28" fill="white" transform="translate(0.0644531)"/>
</clipPath>
</defs>
</svg>
