<svg preserveAspectRatio="none" viewBox="0 0 214 214" fill="none" xmlns="http://www.w3.org/2000/svg">
<path d="M1.91797 107C0.717969 163.7 50.218 213.2 106.918 212C163.618 213.2 213.118 163.7 211.918 107C213.118 50.3 163.618 0.799983 106.918 1.99999C50.218 0.799983 0.717969 50.3 1.91797 107ZM190.618 107C191.518 152.3 152.218 191.6 106.918 190.7C61.618 191.6 22.318 152.3 23.218 107C22.318 61.7 61.618 22.4 106.918 23.3C152.218 22.4 191.518 61.7 190.618 107ZM61.018 75.5C61.018 83.6 67.318 89.9 75.418 89.9C83.518 89.9 89.818 83.6 89.818 75.5C89.818 67.4 83.518 61.1 75.418 61.1C67.318 61.1 61.018 67.4 61.018 75.5ZM124.018 75.5C124.018 83.6 130.318 89.9 138.418 89.9C146.518 89.9 152.818 83.6 152.818 75.5C152.818 67.4 146.518 61.1 138.418 61.1C130.318 61.1 124.018 67.4 124.018 75.5ZM51.718 125.9C58.918 148.7 80.518 165.5 106.918 165.5C133.318 165.5 154.918 148.7 162.118 125.9L142.618 117.5C137.518 134.3 124.618 144.2 106.918 144.2C89.218 144.2 76.318 134.3 71.218 117.5L51.718 125.9Z" fill="currentColor"/>
</svg>
