<svg preserveAspectRatio="none" viewBox="0 0 1200 484" fill="none" xmlns="http://www.w3.org/2000/svg">
<path fill-rule="evenodd" clip-rule="evenodd" d="M600 408.795V333.81L690.553 333.995L781.106 334.18L781.103 404.886C781.102 443.776 780.957 477.435 780.782 479.687L780.463 483.78L690.232 483.78H600V408.795ZM915.821 418.737C860.696 382.995 807.441 348.467 797.481 342.007C787.521 335.546 771.165 324.844 761.135 318.226L742.901 306.192L742.901 227.81C742.901 163.339 742.785 149.397 742.247 149.265C741.886 149.176 709.738 129.456 670.807 105.44L600.021 61.7762L600.011 30.8889L600 0.000120811L899.943 0.000120811L1199.89 0.000120811V74.6754V149.351L972.089 149.476L744.292 149.6L835.968 205.917C886.39 236.892 928.601 262.792 929.773 263.475C930.944 264.157 933.196 265.524 934.777 266.514C937.694 268.34 1020.5 318.977 1037.97 329.622L1047.49 335.42H1123.69H1199.89V409.6V483.78L1107.97 483.75L1016.05 483.72L915.821 418.737Z" fill="#F7F7F7"/>
<path fill-rule="evenodd" clip-rule="evenodd" d="M599.887 408.479L599.887 333.552L509.403 333.736L418.92 333.922L418.923 404.573C418.925 443.433 419.069 477.066 419.244 479.316L419.563 483.406L509.724 483.406L599.887 483.406L599.887 408.479ZM284.31 418.413C339.392 382.699 392.605 348.198 402.558 341.742C412.51 335.286 428.854 324.593 438.876 317.98L457.096 305.956L457.096 227.633C457.096 163.213 457.212 149.281 457.75 149.149C458.11 149.06 490.233 129.355 529.134 105.359L599.866 61.7281L599.876 30.8647L599.887 -0.000261953L300.175 -0.000288154L0.462647 -0.000314356L0.46264 74.6173L0.462634 149.235L228.085 149.36L455.706 149.484L364.101 205.758C313.718 236.708 271.54 262.588 270.369 263.271C269.198 263.953 266.948 265.319 265.368 266.307C262.453 268.132 179.713 318.731 162.251 329.367L152.738 335.161L76.6002 335.161L0.462618 335.161L0.462611 409.284L0.462605 483.406L92.3103 483.376L184.158 483.346L284.31 418.413Z" fill="#F7F7F7"/>
</svg>
